<svg version="1" xmlns="http://www.w3.org/2000/svg" width="533.333" height="533.333" viewBox="0 0 400.000000 400.000000"><path d="M254.8 28.5c-.2.1-5.7.5-12.3.9-18 1-23.9 1.7-25.1 2.9-.7.7-3.3 10-5.9 20.7-4.5 18.9-20 81.9-28.5 116.3-2.3 9.3-4 17-3.8 17.2.2.3 6.7-3.3 14.3-7.9 7.7-4.5 20.8-12.2 29-17.1 8.3-4.8 17-10 19.5-11.5s21.2-12.6 41.5-24.5c73.6-43.3 96-56.6 96.8-57.4 1.7-1.7-13.6-14.5-24.3-20.3-18.2-9.8-42.2-16.2-69.1-18.3-8.1-.7-31.7-1.4-32.1-1zM175.5 39.2c-57.3 14.5-99 36.4-132.1 69.3-19.4 19.3-32 38.3-38.7 58.5-6.8 20.3-5.2 40.6 4.4 56.5 7.6 12.6 23.2 25.4 41.1 33.8l5.6 2.7 6.4-3.8c3.4-2.1 22.1-13.2 41.3-24.5 19.3-11.4 35.6-21.1 36.3-21.5 1-.7 10.2-35.5 18.8-71.5.2-.9.6-2.5.8-3.5 2.4-9.7 7.8-32 8.1-33.2.2-.8 2.2-8.9 4.5-18s4.4-17.4 4.6-18.5c.2-1.1 1.7-7.3 3.4-13.8 1.6-6.5 3-12.2 3-12.7 0-1.2-2.2-1.1-7.5.2zM388.5 99.4c-6.4 4-46.4 27.6-83.5 49.4-8 4.7-19.9 11.7-26.5 15.6-6.6 3.9-13.1 7.7-14.5 8.4-1.4.7-3.5 2.1-4.8 3-2.5 1.9-5.8.9 38.8 12.4 4.1 1 8.3 2.1 9.3 2.3.9.3 2.5.7 3.5.9.9.2 12.5 3.2 25.7 6.6 13.2 3.4 24.7 6.3 25.5 6.5 1.7.3 9.5 2.3 12.2 3.1 1.4.4 2.6-1.2 5.7-7.8 17.3-37.3 23.8-75.9 17-101.1-.5-2-1.1-3.7-1.2-3.7-.1 0-3.3 2-7.2 4.4zM207 206.6c-5.8 3.6-11.2 6.8-12 7.2-.8.4-9.1 5.3-18.5 10.8-9.3 5.6-22.8 13.5-29.9 17.7-15.2 8.9-16 7.5 8.2 13.8 8.6 2.3 17.3 4.5 19.2 5 1.9.5 4.2 1.1 5 1.3.8.2 9.6 2.5 19.5 5.1 9.9 2.6 24.5 6.4 32.5 8.5 8 2.1 24.2 6.3 36 9.4 11.8 3.1 22.2 5.9 23.1 6.1.8.2 6.1 1.5 11.7 3s10.6 2.4 11.1 2c1-.5 13.7-14.7 18.7-20.6 8.5-10.3 27-36.3 27.6-38.9.2-.7-.4-1.4-1.2-1.5-1.6-.3-57.6-14.6-67-17.1-3-.9-6.2-1.7-7-1.9-.8-.1-4.4-1.1-8-2-3.6-.9-7.2-1.9-8-2-.8-.2-12.2-3.1-25.2-6.4-13-3.4-24-6.1-24.5-6-.4 0-5.5 3-11.3 6.5zM81 281c-15.4 9.1-14.8 8.1-14.4 22.5.9 31.6 15.6 52.1 44.7 62.1 28.8 10 70 6.9 110.2-8.3 21.6-8.1 48.5-22.7 60.8-32.9l2.7-2.3-4.2-1.2c-2.4-.6-5.3-1.3-6.6-1.5-1.2-.3-10.5-2.6-20.5-5.3-10-2.7-23.8-6.3-30.7-8.1-6.9-1.8-17.2-4.5-23-6-5.8-1.5-19.5-5.1-30.5-8-33.3-8.7-40.4-10.6-56.6-14.9-8.6-2.2-16.2-4.1-17-4.1-.8 0-7.5 3.6-14.9 8z"/></svg>