<?xml version="1.0" standalone="no"?>
<!DOCTYPE svg PUBLIC "-//W3C//DTD SVG 20010904//EN"
 "http://www.w3.org/TR/2001/REC-SVG-20010904/DTD/svg10.dtd">
<svg version="1.0" xmlns="http://www.w3.org/2000/svg"
 width="400.000000pt" height="400.000000pt" viewBox="0 0 400.000000 400.000000"
 preserveAspectRatio="xMidYMid meet">
<metadata>
Created by potrace 1.11, written by Peter Selinger 2001-2013
</metadata>
<g transform="translate(0.000000,400.000000) scale(0.100000,-0.100000)"
fill="#000000" stroke="none">
<path d="M2548 3715 c-2 -1 -57 -5 -123 -9 -180 -10 -239 -17 -251 -29 -7 -7
-33 -100 -59 -207 -45 -189 -200 -819 -285 -1163 -23 -93 -40 -170 -38 -172 2
-3 67 33 143 79 77 45 208 122 290 171 83 48 170 100 195 115 25 15 212 126
415 245 736 433 960 566 968 574 17 17 -136 145 -243 203 -182 98 -422 162
-691 183 -81 7 -317 14 -321 10z"/>
<path d="M1755 3608 c-573 -145 -990 -364 -1321 -693 -194 -193 -320 -383
-387 -585 -68 -203 -52 -406 44 -565 76 -126 232 -254 411 -338 l56 -27 64 38
c34 21 221 132 413 245 193 114 356 211 363 215 10 7 102 355 188 715 2 9 6
25 8 35 24 97 78 320 81 332 2 8 22 89 45 180 23 91 44 174 46 185 2 11 17 73
34 138 16 65 30 122 30 127 0 12 -22 11 -75 -2z"/>
<path d="M3885 3006 c-64 -40 -464 -276 -835 -494 -80 -47 -199 -117 -265
-156 -66 -39 -131 -77 -145 -84 -14 -7 -35 -21 -48 -30 -25 -19 -58 -9 388
-124 41 -10 83 -21 93 -23 9 -3 25 -7 35 -9 9 -2 125 -32 257 -66 132 -34 247
-63 255 -65 17 -3 95 -23 122 -31 14 -4 26 12 57 78 173 373 238 759 170 1011
-5 20 -11 37 -12 37 -1 0 -33 -20 -72 -44z"/>
<path d="M2070 1934 c-58 -36 -112 -68 -120 -72 -8 -4 -91 -53 -185 -108 -93
-56 -228 -135 -299 -177 -152 -89 -160 -75 82 -138 86 -23 173 -45 192 -50 19
-5 42 -11 50 -13 8 -2 96 -25 195 -51 99 -26 245 -64 325 -85 80 -21 242 -63
360 -94 118 -31 222 -59 231 -61 8 -2 61 -15 117 -30 56 -15 106 -24 111 -20
10 5 137 147 187 206 85 103 270 363 276 389 2 7 -4 14 -12 15 -16 3 -576 146
-670 171 -30 9 -62 17 -70 19 -8 1 -44 11 -80 20 -36 9 -72 19 -80 20 -8 2
-122 31 -252 64 -130 34 -240 61 -245 60 -4 0 -55 -30 -113 -65z"/>
<path d="M810 1190 c-154 -91 -148 -81 -144 -225 9 -316 156 -521 447 -621
288 -100 700 -69 1102 83 216 81 485 227 608 329 l27 23 -42 12 c-24 6 -53 13
-66 15 -12 3 -105 26 -205 53 -100 27 -238 63 -307 81 -69 18 -172 45 -230 60
-58 15 -195 51 -305 80 -333 87 -404 106 -566 149 -86 22 -162 41 -170 41 -8
0 -75 -36 -149 -80z"/>
</g>
</svg>
